<svg width="116" height="40" viewBox="0 0 116 40" fill="none" xmlns="http://www.w3.org/2000/svg">
<rect width="116" height="40" rx="4" fill="#F4F4F4"/>
<path d="M9.40909 25.5V13.8636H16.3864V15.1136H10.8182V19.0455H15.8636V20.2955H10.8182V25.5H9.40909ZM21.1861 25.7045C20.633 25.7045 20.1312 25.6004 19.6804 25.392C19.2296 25.1799 18.8717 24.875 18.6065 24.4773C18.3414 24.0758 18.2088 23.5909 18.2088 23.0227C18.2088 22.5227 18.3073 22.1174 18.5043 21.8068C18.7012 21.4924 18.9645 21.2462 19.294 21.0682C19.6236 20.8902 19.9872 20.7576 20.3849 20.6705C20.7865 20.5795 21.1899 20.5076 21.5952 20.4545C22.1255 20.3864 22.5554 20.3352 22.8849 20.3011C23.2183 20.2633 23.4607 20.2008 23.6122 20.1136C23.7675 20.0265 23.8452 19.875 23.8452 19.6591V19.6136C23.8452 19.053 23.6918 18.6174 23.3849 18.3068C23.0819 17.9962 22.6217 17.8409 22.0043 17.8409C21.3641 17.8409 20.8622 17.9811 20.4986 18.2614C20.1349 18.5417 19.8793 18.8409 19.7315 19.1591L18.4588 18.7045C18.6861 18.1742 18.9891 17.7614 19.3679 17.4659C19.7505 17.1667 20.1671 16.9583 20.6179 16.8409C21.0724 16.7197 21.5194 16.6591 21.9588 16.6591C22.2391 16.6591 22.5611 16.6932 22.9247 16.7614C23.2921 16.8258 23.6463 16.9602 23.9872 17.1648C24.3319 17.3693 24.6179 17.678 24.8452 18.0909C25.0724 18.5038 25.1861 19.0568 25.1861 19.75V25.5H23.8452V24.3182H23.777C23.6861 24.5076 23.5346 24.7102 23.3224 24.9261C23.1103 25.142 22.8281 25.3258 22.4759 25.4773C22.1236 25.6288 21.6937 25.7045 21.1861 25.7045ZM21.3906 24.5C21.9209 24.5 22.3679 24.3958 22.7315 24.1875C23.099 23.9792 23.3755 23.7102 23.5611 23.3807C23.7505 23.0511 23.8452 22.7045 23.8452 22.3409V21.1136C23.7884 21.1818 23.6634 21.2443 23.4702 21.3011C23.2808 21.3542 23.0611 21.4015 22.8111 21.4432C22.5649 21.4811 22.3243 21.5152 22.0895 21.5455C21.8584 21.572 21.6709 21.5947 21.527 21.6136C21.1785 21.6591 20.8527 21.733 20.5497 21.8352C20.2505 21.9337 20.008 22.0833 19.8224 22.2841C19.6406 22.4811 19.5497 22.75 19.5497 23.0909C19.5497 23.5568 19.7221 23.9091 20.0668 24.1477C20.4152 24.3826 20.8565 24.5 21.3906 24.5ZM34.4574 16.7727L31.2301 25.5H29.8665L26.6392 16.7727H28.0938L30.5028 23.7273H30.5938L33.0028 16.7727H34.4574ZM39.4602 25.6818C38.6723 25.6818 37.9811 25.4943 37.3864 25.1193C36.7955 24.7443 36.3333 24.2197 36 23.5455C35.6705 22.8712 35.5057 22.0833 35.5057 21.1818C35.5057 20.2727 35.6705 19.4792 36 18.8011C36.3333 18.1231 36.7955 17.5966 37.3864 17.2216C37.9811 16.8466 38.6723 16.6591 39.4602 16.6591C40.2481 16.6591 40.9375 16.8466 41.5284 17.2216C42.1231 17.5966 42.5852 18.1231 42.9148 18.8011C43.2481 19.4792 43.4148 20.2727 43.4148 21.1818C43.4148 22.0833 43.2481 22.8712 42.9148 23.5455C42.5852 24.2197 42.1231 24.7443 41.5284 25.1193C40.9375 25.4943 40.2481 25.6818 39.4602 25.6818ZM39.4602 24.4773C40.0587 24.4773 40.5511 24.3239 40.9375 24.017C41.3239 23.7102 41.6098 23.3068 41.7955 22.8068C41.9811 22.3068 42.0739 21.7652 42.0739 21.1818C42.0739 20.5985 41.9811 20.0549 41.7955 19.5511C41.6098 19.0473 41.3239 18.6402 40.9375 18.3295C40.5511 18.0189 40.0587 17.8636 39.4602 17.8636C38.8617 17.8636 38.3693 18.0189 37.983 18.3295C37.5966 18.6402 37.3106 19.0473 37.125 19.5511C36.9394 20.0549 36.8466 20.5985 36.8466 21.1818C36.8466 21.7652 36.9394 22.3068 37.125 22.8068C37.3106 23.3068 37.5966 23.7102 37.983 24.017C38.3693 24.3239 38.8617 24.4773 39.4602 24.4773ZM45.4616 25.5V16.7727H46.7571V18.0909H46.848C47.0071 17.6591 47.295 17.3087 47.7116 17.0398C48.1283 16.7708 48.598 16.6364 49.1207 16.6364C49.2192 16.6364 49.3423 16.6383 49.4901 16.642C49.6378 16.6458 49.7495 16.6515 49.8253 16.6591V18.0227C49.7798 18.0114 49.6757 17.9943 49.5128 17.9716C49.3537 17.9451 49.1851 17.9318 49.0071 17.9318C48.5829 17.9318 48.2041 18.0208 47.8707 18.1989C47.5412 18.3731 47.2798 18.6155 47.0866 18.9261C46.8973 19.233 46.8026 19.5833 46.8026 19.9773V25.5H45.4616ZM51.4148 25.5V16.7727H52.7557V25.5H51.4148ZM52.0966 15.3182C51.8352 15.3182 51.6098 15.2292 51.4205 15.0511C51.2348 14.8731 51.142 14.6591 51.142 14.4091C51.142 14.1591 51.2348 13.9451 51.4205 13.767C51.6098 13.589 51.8352 13.5 52.0966 13.5C52.358 13.5 52.5814 13.589 52.767 13.767C52.9564 13.9451 53.0511 14.1591 53.0511 14.4091C53.0511 14.6591 52.9564 14.8731 52.767 15.0511C52.5814 15.2292 52.358 15.3182 52.0966 15.3182ZM59.0071 16.7727V17.9091H54.4844V16.7727H59.0071ZM55.8026 14.6818H57.1435V23C57.1435 23.3788 57.1984 23.6629 57.3082 23.8523C57.4219 24.0379 57.5658 24.1629 57.7401 24.2273C57.9181 24.2879 58.1056 24.3182 58.3026 24.3182C58.4503 24.3182 58.5715 24.3106 58.6662 24.2955C58.7609 24.2765 58.8366 24.2614 58.8935 24.25L59.1662 25.4545C59.0753 25.4886 58.9484 25.5227 58.7855 25.5568C58.6226 25.5947 58.4162 25.6136 58.1662 25.6136C57.7874 25.6136 57.4162 25.5322 57.0526 25.3693C56.6927 25.2064 56.3935 24.9583 56.1548 24.625C55.92 24.2917 55.8026 23.8712 55.8026 23.3636V14.6818ZM64.5895 25.6818C63.7486 25.6818 63.0232 25.4962 62.4134 25.125C61.8073 24.75 61.3395 24.2273 61.0099 23.5568C60.6842 22.8826 60.5213 22.0985 60.5213 21.2045C60.5213 20.3106 60.6842 19.5227 61.0099 18.8409C61.3395 18.1553 61.7978 17.6212 62.3849 17.2386C62.9759 16.8523 63.6652 16.6591 64.4531 16.6591C64.9077 16.6591 65.3565 16.7348 65.7997 16.8864C66.2429 17.0379 66.6463 17.2841 67.0099 17.625C67.3736 17.9621 67.6634 18.4091 67.8793 18.9659C68.0952 19.5227 68.2031 20.2083 68.2031 21.0227V21.5909H61.4759V20.4318H66.8395C66.8395 19.9394 66.741 19.5 66.544 19.1136C66.3509 18.7273 66.0743 18.4223 65.7145 18.1989C65.3584 17.9754 64.938 17.8636 64.4531 17.8636C63.919 17.8636 63.4569 17.9962 63.0668 18.2614C62.6804 18.5227 62.383 18.8636 62.1747 19.2841C61.9664 19.7045 61.8622 20.1553 61.8622 20.6364V21.4091C61.8622 22.0682 61.9759 22.6269 62.2031 23.0852C62.4342 23.5398 62.7543 23.8864 63.1634 24.125C63.5724 24.3598 64.0478 24.4773 64.5895 24.4773C64.9418 24.4773 65.2599 24.428 65.544 24.3295C65.8319 24.2273 66.08 24.0758 66.2884 23.875C66.4967 23.6705 66.6577 23.4167 66.7713 23.1136L68.0668 23.4773C67.9304 23.9167 67.7012 24.303 67.3793 24.6364C67.0573 24.9659 66.6596 25.2235 66.1861 25.4091C65.7126 25.5909 65.1804 25.6818 64.5895 25.6818Z" fill="#797979"/>
<path d="M92.5874 16.236L95.1849 11.0038C95.5183 10.3321 96.4817 10.3321 96.8151 11.0038L99.4126 16.236L105.222 17.0802C105.967 17.1885 106.264 18.0994 105.724 18.6219L101.522 22.6918L102.514 28.4414C102.641 29.1798 101.861 29.7428 101.195 29.3941L96 26.678L90.8055 29.3941C90.1386 29.7428 89.3591 29.1798 89.4865 28.4414L90.4783 22.6918L86.2758 18.6219C85.7362 18.0994 86.0332 17.1885 86.7785 17.0802L92.5874 16.236Z" stroke="#797979" stroke-width="1.5" stroke-linecap="round" stroke-linejoin="round"/>
</svg>
