<svg width="98" height="40" viewBox="0 0 98 40" fill="none" xmlns="http://www.w3.org/2000/svg">
<rect width="98" height="40" rx="4" fill="#F4F4F4"/>
<path d="M15.7727 16.7727C15.7045 16.197 15.428 15.75 14.9432 15.4318C14.4583 15.1136 13.8636 14.9545 13.1591 14.9545C12.6439 14.9545 12.1932 15.0379 11.8068 15.2045C11.4242 15.3712 11.125 15.6004 10.9091 15.892C10.697 16.1837 10.5909 16.5152 10.5909 16.8864C10.5909 17.197 10.6648 17.464 10.8125 17.6875C10.964 17.9072 11.1572 18.0909 11.392 18.2386C11.6269 18.3826 11.8731 18.5019 12.1307 18.5966C12.3883 18.6875 12.625 18.7614 12.8409 18.8182L14.0227 19.1364C14.3258 19.2159 14.6629 19.3258 15.0341 19.4659C15.4091 19.6061 15.767 19.7973 16.108 20.0398C16.4527 20.2784 16.7367 20.5852 16.9602 20.9602C17.1837 21.3352 17.2955 21.7955 17.2955 22.3409C17.2955 22.9697 17.1307 23.5379 16.8011 24.0455C16.4754 24.553 15.9981 24.9564 15.3693 25.2557C14.7443 25.5549 13.9848 25.7045 13.0909 25.7045C12.2576 25.7045 11.536 25.5701 10.9261 25.3011C10.3201 25.0322 9.8428 24.6572 9.49432 24.1761C9.14962 23.6951 8.95455 23.1364 8.90909 22.5H10.3636C10.4015 22.9394 10.5492 23.303 10.8068 23.5909C11.0682 23.875 11.3977 24.0871 11.7955 24.2273C12.197 24.3636 12.6288 24.4318 13.0909 24.4318C13.6288 24.4318 14.1117 24.3447 14.5398 24.1705C14.9678 23.9924 15.3068 23.7462 15.5568 23.4318C15.8068 23.1136 15.9318 22.7424 15.9318 22.3182C15.9318 21.9318 15.8239 21.6174 15.608 21.375C15.392 21.1326 15.108 20.9356 14.7557 20.7841C14.4034 20.6326 14.0227 20.5 13.6136 20.3864L12.1818 19.9773C11.2727 19.7159 10.553 19.3428 10.0227 18.858C9.49242 18.3731 9.22727 17.7386 9.22727 16.9545C9.22727 16.303 9.40341 15.7348 9.75568 15.25C10.1117 14.7614 10.589 14.3826 11.1875 14.1136C11.7898 13.8409 12.4621 13.7045 13.2045 13.7045C13.9545 13.7045 14.6212 13.839 15.2045 14.108C15.7879 14.3731 16.25 14.7367 16.5909 15.1989C16.9356 15.661 17.1174 16.1856 17.1364 16.7727H15.7727ZM20.7713 20.25V25.5H19.4304V13.8636H20.7713V18.1364H20.8849C21.0895 17.6856 21.3963 17.3277 21.8054 17.0625C22.2183 16.7936 22.7675 16.6591 23.4531 16.6591C24.0478 16.6591 24.5687 16.7784 25.0156 17.017C25.4626 17.2519 25.8092 17.6136 26.0554 18.1023C26.3054 18.5871 26.4304 19.2045 26.4304 19.9545V25.5H25.0895V20.0455C25.0895 19.3523 24.9096 18.8163 24.5497 18.4375C24.1937 18.0549 23.6993 17.8636 23.0668 17.8636C22.6274 17.8636 22.2334 17.9564 21.8849 18.142C21.5402 18.3277 21.2675 18.5985 21.0668 18.9545C20.8698 19.3106 20.7713 19.7424 20.7713 20.25ZM31.4517 25.7045C30.8987 25.7045 30.3968 25.6004 29.946 25.392C29.4953 25.1799 29.1373 24.875 28.8722 24.4773C28.607 24.0758 28.4744 23.5909 28.4744 23.0227C28.4744 22.5227 28.5729 22.1174 28.7699 21.8068C28.9669 21.4924 29.2301 21.2462 29.5597 21.0682C29.8892 20.8902 30.2528 20.7576 30.6506 20.6705C31.0521 20.5795 31.4555 20.5076 31.8608 20.4545C32.3911 20.3864 32.821 20.3352 33.1506 20.3011C33.4839 20.2633 33.7263 20.2008 33.8778 20.1136C34.0331 20.0265 34.1108 19.875 34.1108 19.6591V19.6136C34.1108 19.053 33.9574 18.6174 33.6506 18.3068C33.3475 17.9962 32.8873 17.8409 32.2699 17.8409C31.6297 17.8409 31.1278 17.9811 30.7642 18.2614C30.4006 18.5417 30.1449 18.8409 29.9972 19.1591L28.7244 18.7045C28.9517 18.1742 29.2547 17.7614 29.6335 17.4659C30.0161 17.1667 30.4328 16.9583 30.8835 16.8409C31.3381 16.7197 31.785 16.6591 32.2244 16.6591C32.5047 16.6591 32.8267 16.6932 33.1903 16.7614C33.5578 16.8258 33.9119 16.9602 34.2528 17.1648C34.5975 17.3693 34.8835 17.678 35.1108 18.0909C35.3381 18.5038 35.4517 19.0568 35.4517 19.75V25.5H34.1108V24.3182H34.0426C33.9517 24.5076 33.8002 24.7102 33.5881 24.9261C33.3759 25.142 33.0938 25.3258 32.7415 25.4773C32.3892 25.6288 31.9593 25.7045 31.4517 25.7045ZM31.6562 24.5C32.1866 24.5 32.6335 24.3958 32.9972 24.1875C33.3646 23.9792 33.6411 23.7102 33.8267 23.3807C34.0161 23.0511 34.1108 22.7045 34.1108 22.3409V21.1136C34.054 21.1818 33.929 21.2443 33.7358 21.3011C33.5464 21.3542 33.3267 21.4015 33.0767 21.4432C32.8305 21.4811 32.59 21.5152 32.3551 21.5455C32.1241 21.572 31.9366 21.5947 31.7926 21.6136C31.4441 21.6591 31.1184 21.733 30.8153 21.8352C30.5161 21.9337 30.2737 22.0833 30.0881 22.2841C29.9063 22.4811 29.8153 22.75 29.8153 23.0909C29.8153 23.5568 29.9877 23.9091 30.3324 24.1477C30.6809 24.3826 31.1222 24.5 31.6562 24.5ZM37.8991 25.5V16.7727H39.1946V18.0909H39.2855C39.4446 17.6591 39.7325 17.3087 40.1491 17.0398C40.5658 16.7708 41.0355 16.6364 41.5582 16.6364C41.6567 16.6364 41.7798 16.6383 41.9276 16.642C42.0753 16.6458 42.187 16.6515 42.2628 16.6591V18.0227C42.2173 18.0114 42.1132 17.9943 41.9503 17.9716C41.7912 17.9451 41.6226 17.9318 41.4446 17.9318C41.0204 17.9318 40.6416 18.0208 40.3082 18.1989C39.9787 18.3731 39.7173 18.6155 39.5241 18.9261C39.3348 19.233 39.2401 19.5833 39.2401 19.9773V25.5H37.8991ZM47.2457 25.6818C46.4048 25.6818 45.6795 25.4962 45.0696 25.125C44.4635 24.75 43.9957 24.2273 43.6662 23.5568C43.3404 22.8826 43.1776 22.0985 43.1776 21.2045C43.1776 20.3106 43.3404 19.5227 43.6662 18.8409C43.9957 18.1553 44.4541 17.6212 45.0412 17.2386C45.6321 16.8523 46.3215 16.6591 47.1094 16.6591C47.5639 16.6591 48.0128 16.7348 48.456 16.8864C48.8991 17.0379 49.3026 17.2841 49.6662 17.625C50.0298 17.9621 50.3196 18.4091 50.5355 18.9659C50.7514 19.5227 50.8594 20.2083 50.8594 21.0227V21.5909H44.1321V20.4318H49.4957C49.4957 19.9394 49.3973 19.5 49.2003 19.1136C49.0071 18.7273 48.7306 18.4223 48.3707 18.1989C48.0147 17.9754 47.5942 17.8636 47.1094 17.8636C46.5753 17.8636 46.1132 17.9962 45.723 18.2614C45.3366 18.5227 45.0393 18.8636 44.831 19.2841C44.6226 19.7045 44.5185 20.1553 44.5185 20.6364V21.4091C44.5185 22.0682 44.6321 22.6269 44.8594 23.0852C45.0904 23.5398 45.4105 23.8864 45.8196 24.125C46.2287 24.3598 46.7041 24.4773 47.2457 24.4773C47.598 24.4773 47.9162 24.428 48.2003 24.3295C48.4882 24.2273 48.7363 24.0758 48.9446 23.875C49.1529 23.6705 49.3139 23.4167 49.4276 23.1136L50.723 23.4773C50.5866 23.9167 50.3575 24.303 50.0355 24.6364C49.7135 24.9659 49.3158 25.2235 48.8423 25.4091C48.3688 25.5909 47.8366 25.6818 47.2457 25.6818Z" fill="#797979"/>
<path d="M84 30C85.6569 30 87 28.6569 87 27C87 25.3431 85.6569 24 84 24C82.3431 24 81 25.3431 81 27C81 28.6569 82.3431 30 84 30Z" stroke="#797979" stroke-width="1.5" stroke-linecap="round" stroke-linejoin="round"/>
<path d="M84 16C85.6569 16 87 14.6568 87 13C87 11.3432 85.6569 10 84 10C82.3431 10 81 11.3432 81 13C81 14.6568 82.3431 16 84 16Z" stroke="#797979" stroke-width="1.5" stroke-linecap="round" stroke-linejoin="round"/>
<path d="M72 23C73.6568 23 75 21.6569 75 20C75 18.3431 73.6568 17 72 17C70.3432 17 69 18.3431 69 20C69 21.6569 70.3432 23 72 23Z" stroke="#797979" stroke-width="1.5" stroke-linecap="round" stroke-linejoin="round"/>
<path d="M81.5 14.5L74.5 18.5" stroke="#797979" stroke-width="1.5"/>
<path d="M74.5 21.5L81.5 25.5" stroke="#797979" stroke-width="1.5"/>
</svg>
